<svg xmlns="http://www.w3.org/2000/svg" viewBox="0 0 1200 900" width="1200" height="900" role="img" aria-label="Platzhaltergrafik: Team im Garten- und Landschaftsbau bei der Arbeit">
  <defs>
    <linearGradient id="tBg" x1="0" y1="0" x2="0" y2="1">
      <stop offset="0%" stop-color="#123a28"/>
      <stop offset="60%" stop-color="#1d5a3c"/>
      <stop offset="100%" stop-color="#0a2317"/>
    </linearGradient>
    <linearGradient id="tGround" x1="0" y1="0" x2="0" y2="1">
      <stop offset="0%" stop-color="#2c6f47"/>
      <stop offset="100%" stop-color="#173d29"/>
    </linearGradient>
  </defs>
  <rect width="1200" height="900" fill="url(#tBg)"/>

  <circle cx="880" cy="220" r="150" fill="#8fd1a6" opacity="0.12"/>
  <circle cx="880" cy="220" r="72" fill="#cfe9d8" opacity="0.16"/>

  <path d="M0 560 C 200 520, 380 580, 600 556 C 820 532, 1000 588, 1200 552 L1200 900 L0 900 Z" fill="url(#tGround)"/>

  <!-- Baeume -->
  <g opacity="0.9">
    <rect x="150" y="420" width="16" height="150" rx="7" fill="#0d2a1c"/>
    <ellipse cx="158" cy="400" rx="104" ry="76" fill="#14432d"/>
    <rect x="1024" y="440" width="14" height="130" rx="6" fill="#0d2a1c"/>
    <ellipse cx="1031" cy="424" rx="86" ry="62" fill="#14432d"/>
  </g>

  <!-- Personen, abstrahiert -->
  <g fill="#e8e2d5">
    <g transform="translate(430 470)">
      <circle cx="0" cy="0" r="34" fill="#f0d9b8"/>
      <path d="M-46 190 C -46 96, -30 44, 0 44 C 30 44, 46 96, 46 190 Z" fill="#dcae4a"/>
      <rect x="-52" y="86" width="104" height="16" rx="8" fill="#c2963a"/>
      <path d="M-30 -12 C -30 -34, -14 -46, 0 -46 C 14 -46, 30 -34, 30 -12 Z" fill="#2a8a5c"/>
    </g>
    <g transform="translate(600 500)">
      <circle cx="0" cy="0" r="32" fill="#e6c6a3"/>
      <path d="M-44 170 C -44 84, -28 38, 0 38 C 28 38, 44 84, 44 170 Z" fill="#3f7f5c"/>
      <rect x="-50" y="76" width="100" height="14" rx="7" fill="#356a4d"/>
      <path d="M-28 -10 C -28 -32, -13 -44, 0 -44 C 13 -44, 28 -32, 28 -10 Z" fill="#dcae4a"/>
    </g>
    <g transform="translate(760 486)">
      <circle cx="0" cy="0" r="33" fill="#f0d9b8"/>
      <path d="M-45 180 C -45 90, -29 40, 0 40 C 29 40, 45 90, 45 180 Z" fill="#c9c0af"/>
      <rect x="-51" y="80" width="102" height="15" rx="7" fill="#aca394"/>
      <path d="M-29 -11 C -29 -33, -13 -45, 0 -45 C 13 -45, 29 -33, 29 -11 Z" fill="#2a8a5c"/>
    </g>
  </g>

  <!-- Werkzeug angedeutet -->
  <g stroke="#0d2a1c" stroke-width="10" stroke-linecap="round" opacity="0.8">
    <path d="M520 500 L556 690"/>
    <path d="M846 520 L876 700"/>
  </g>

  <!-- Vordergrundhecke -->
  <path d="M0 760 C 180 730, 340 780, 520 756 C 700 732, 880 782, 1200 748 L1200 900 L0 900 Z" fill="#0b2417" opacity="0.9"/>
</svg>
